<svg xmlns="http://www.w3.org/2000/svg" viewBox="0 0 52 64">
  <path
    fill="#FFFFFF"
    fill-opacity="0.55"
    d="M50.2729096 2.92285771C50.2769973 2.98759391 50.2790429 3.05244063 50.2790429 3.11730315V58.8828028C50.2790429 60.6043831 48.8689636 62 47.1295431 62C47.0824212 62 47.0353056 61.9989534 46.9882313 61.9968606L4.94876437 60.1280997C3.31149338 60.0553189 2.00425692 58.751918 1.94279175 57.1309472L0.0022554267 5.95476663C-0.0618328758 4.26461814 1.24754196 2.83223697 2.95307926 2.72673418L37.427 0.594L37.1272753 7.62078766C37.1238721 7.70179664 37.1419373 7.78178731 37.179031 7.85305525L37.2223772 7.92113026C37.3791917 8.12573637 37.6738999 8.16578288 37.880626 8.0105767L40.6382617 5.94019678L42.9673936 7.75618537C43.0546693 7.82423279 43.1634862 7.85946584 43.2745216 7.85562813C43.5338374 7.84666553 43.7367132 7.6313391 43.7276576 7.37468316L43.467 0.22L46.9330824 0.00617628491C48.6691159-0.10121296 50.1644074 1.2046298 50.2729096 2.92285771Z"
  />
  <path
    fill="#FFFFFF"
    d="M29.4029796 23.368648C29.4029796 24.58142 37.6567008 24.00017 38.7646901 23.1482813C38.7646901 14.8895929 34.2873503 10.5497821 26.0885852 10.5497821C17.88982 10.5497821 13.2961856 14.9571143 13.2961856 21.5681161C13.2961856 33.0822778 28.9959487 33.3026444 28.9959487 39.5830962C28.9959487 41.3460299 28.1237396 42.3927719 26.2048797 42.3927719C23.7045471 42.3927719 22.7160434 41.1289316 22.832338 36.8317805C22.832338 35.8995698 13.2961856 35.6089448 13.0054493 36.8317805C12.2651161 47.2453073 18.8201763 50.248968 26.3211742 50.248968C33.5895831 50.248968 39.2880157 46.4144645 39.2880157 39.4729126C39.2880157 27.132376 23.3556634 27.4629261 23.3556634 21.3477494C23.3556634 18.8686237 25.2163761 18.5380737 26.3211742 18.5380737C27.4841196 18.5380737 29.5774214 18.7409467 29.4029796 23.368648Z"
  />
  <path
    fill="#FFFFFF"
    d="M37.1272753 7.62078766L37.4276823 0.591583333L43.4674595 0.218291667L43.7276576 7.37468316C43.7367132 7.6313391 43.5338374 7.84666553 43.2745216 7.85562813C43.1634862 7.85946584 43.0546693 7.82423279 42.9673936 7.75618537L40.6382617 5.94019678L37.880626 8.0105767C37.6738999 8.16578288 37.3791917 8.12573637 37.2223772 7.92113026C37.1563661 7.83500129 37.1227378 7.72879963 37.1272753 7.62078766Z"
  />
</svg>
